<svg width="1277" height="400" viewBox="0 0 1277 400" fill="none" xmlns="http://www.w3.org/2000/svg">
<path d="M1072.78 175.315C1072.27 170.527 1070.11 166.798 1066.31 164.13C1062.55 161.462 1057.65 160.128 1051.62 160.128C1047.38 160.128 1043.74 160.767 1040.71 162.047C1037.67 163.326 1035.35 165.062 1033.74 167.255C1032.14 169.449 1031.31 171.952 1031.28 174.767C1031.28 177.106 1031.81 179.135 1032.87 180.853C1033.96 182.571 1035.44 184.033 1037.31 185.239C1039.17 186.409 1041.24 187.395 1043.5 188.2C1045.77 189.004 1048.05 189.68 1050.36 190.228L1060.88 192.86C1065.12 193.847 1069.2 195.181 1073.11 196.862C1077.06 198.544 1080.59 200.664 1083.69 203.222C1086.84 205.781 1089.32 208.87 1091.15 212.488C1092.98 216.107 1093.89 220.347 1093.89 225.208C1093.89 231.788 1092.21 237.581 1088.85 242.589C1085.48 247.56 1080.62 251.453 1074.26 254.267C1067.94 257.045 1060.28 258.434 1051.29 258.434C1042.55 258.434 1034.97 257.082 1028.54 254.377C1022.14 251.672 1017.13 247.724 1013.51 242.534C1009.93 237.344 1007.99 231.02 1007.7 223.564H1027.71C1028.01 227.475 1029.21 230.728 1031.33 233.323C1033.45 235.918 1036.21 237.855 1039.61 239.135C1043.05 240.414 1046.88 241.054 1051.12 241.054C1055.55 241.054 1059.42 240.396 1062.75 239.08C1066.11 237.727 1068.74 235.863 1070.64 233.487C1072.54 231.075 1073.51 228.26 1073.55 225.044C1073.51 222.12 1072.65 219.707 1070.97 217.807C1069.29 215.869 1066.93 214.261 1063.9 212.982C1060.9 211.666 1057.39 210.496 1053.37 209.473L1040.6 206.183C1031.35 203.807 1024.04 200.207 1018.67 195.382C1013.33 190.521 1010.66 184.069 1010.66 176.028C1010.66 169.412 1012.45 163.618 1016.03 158.647C1019.65 153.676 1024.57 149.82 1030.78 147.079C1037 144.301 1044.03 142.912 1051.89 142.912C1059.86 142.912 1066.84 144.301 1072.84 147.079C1078.87 149.82 1083.6 153.64 1087.04 158.538C1090.47 163.399 1092.25 168.992 1092.36 175.315H1072.78Z" fill="#5178FA"/>
<path d="M915.426 161.498V144.447H1005.01V161.498H970.308V256.734H950.132V161.498H915.426Z" fill="#5178FA"/>
<path d="M845.982 256.734H824.271L863.801 144.447H888.912L928.498 256.734H906.786L876.796 167.475H875.918L845.982 256.734ZM846.695 212.708H905.909V229.046H846.695V212.708Z" fill="#5178FA"/>
<path d="M760.41 226.031L760.19 210.021H762.822L799.666 172.519H815.676L776.419 212.214H775.323L760.41 226.031ZM748.348 256.734V144.447H761.287V256.734H748.348ZM801.86 256.734L768.963 215.065L778.174 206.073L818.308 256.734H801.86Z" fill="black"/>
<path d="M670.972 206.073V256.734H658.032V172.519H670.533V185.678H671.63C673.603 181.401 676.601 177.965 680.621 175.37C684.642 172.738 689.832 171.422 696.192 171.422C701.894 171.422 706.884 172.592 711.16 174.931C715.437 177.234 718.763 180.743 721.139 185.458C723.515 190.137 724.703 196.058 724.703 203.222V256.734H711.763V204.1C711.763 197.484 710.045 192.33 706.61 188.638C703.174 184.91 698.459 183.046 692.464 183.046C688.334 183.046 684.642 183.941 681.389 185.732C678.172 187.523 675.632 190.137 673.768 193.573C671.904 197.009 670.972 201.175 670.972 206.073Z" fill="black"/>
<path d="M621.393 256.734V172.519H634.333V256.734H621.393ZM627.973 158.483C625.451 158.483 623.276 157.624 621.448 155.906C619.657 154.188 618.762 152.123 618.762 149.71C618.762 147.298 619.657 145.233 621.448 143.515C623.276 141.797 625.451 140.938 627.973 140.938C630.495 140.938 632.651 141.797 634.442 143.515C636.27 145.233 637.184 147.298 637.184 149.71C637.184 152.123 636.27 154.188 634.442 155.906C632.651 157.624 630.495 158.483 627.973 158.483Z" fill="black"/>
<path d="M543.113 206.073V256.734H530.174V144.447H543.113V185.678H544.21C546.184 181.328 549.144 177.874 553.092 175.315C557.076 172.72 562.376 171.422 568.992 171.422C574.731 171.422 579.756 172.574 584.07 174.876C588.383 177.143 591.727 180.633 594.103 185.349C596.515 190.027 597.722 195.985 597.722 203.222V256.734H584.782V204.1C584.782 197.411 583.046 192.239 579.574 188.583C576.138 184.892 571.368 183.046 565.264 183.046C561.024 183.046 557.222 183.941 553.859 185.732C550.533 187.523 547.901 190.137 545.964 193.573C544.064 197.009 543.113 201.175 543.113 206.073Z" fill="black"/>
<path d="M426.728 156.509V144.447H510.943V156.509H475.634V256.734H462.037V156.509H426.728Z" fill="black"/>
<path d="M183 111.697C183 105.237 188.237 100 194.697 100H370.929C377.389 100 382.626 105.237 382.626 111.697V151.29C382.626 157.749 377.389 162.986 370.929 162.986H194.697C188.237 162.986 183 157.749 183 151.29V111.697Z" fill="#5178FA"/>
<path d="M201.715 180.531C201.715 174.071 206.952 168.834 213.411 168.834H352.074C358.534 168.834 363.771 174.071 363.771 180.531V219.469C363.771 225.929 358.534 231.166 352.074 231.166H213.411C206.952 231.166 201.715 225.929 201.715 219.469V180.531Z" fill="black"/>
<path d="M220.429 248.71C220.429 242.251 225.665 237.014 232.125 237.014H333.862C340.322 237.014 345.559 242.251 345.559 248.71V288.303C345.559 294.763 340.322 300 333.862 300H232.125C225.665 300 220.429 294.763 220.429 288.303V248.71Z" fill="#009600"/>
</svg>
