<svg width="16" height="16" viewBox="0 0 16 16" fill="none" xmlns="http://www.w3.org/2000/svg">
<path d="M13.6733 13.2848C11.4459 13.2848 9.65514 11.9527 8.81802 10.0309H10.1429C12.909 10.0309 15.1583 7.78162 15.1583 5.01547C15.1583 2.24932 12.909 0 10.1429 0H8.1556C7.40582 0 6.80164 0.604186 6.80164 1.35396C6.80164 2.10373 7.40582 2.70792 8.1556 2.70792H10.1429C11.4095 2.70792 12.4431 3.74158 12.4431 5.00819C12.4431 6.2748 11.4095 7.30846 10.1429 7.30846H8.37398V6.72611C8.37398 4.90628 6.89627 3.42857 5.07643 3.42857H4.29754C2.47771 3.42857 1 4.90628 1 6.72611C1 8.54595 1.9172 9.3758 3.19836 9.82712V14.646C3.19836 15.3958 3.80255 16 4.55232 16C5.30209 16 5.90628 15.3958 5.90628 14.646V10.0164H5.9354C6.88171 13.4595 9.74978 15.9418 13.4914 15.9418C15.0928 15.869 15.1365 15.3958 15.1365 14.646C15.1365 13.8963 14.5323 13.2921 13.7825 13.2921L13.6733 13.2848ZM5.65878 7.31574H4.29754C3.97725 7.31574 3.7152 7.05369 3.7152 6.73339C3.7152 6.4131 3.97725 6.15105 4.29754 6.15105H5.07643C5.39672 6.15105 5.65878 6.4131 5.65878 6.73339V7.31574Z" fill="#172965"/>
<path d="M4.69073 2.93359C5.49479 2.93359 6.1466 2.28177 6.1466 1.47772C6.1466 0.673665 5.49479 0.0218506 4.69073 0.0218506C3.88668 0.0218506 3.23486 0.673665 3.23486 1.47772C3.23486 2.28177 3.88668 2.93359 4.69073 2.93359Z" fill="#FFC000"/>
</svg>
