<svg width="16" height="16" viewBox="0 0 16 16" fill="none" xmlns="http://www.w3.org/2000/svg">
<g clip-path="url(#clip0_3_867)">
<path d="M0 0.578721C0 0.259102 0.259102 0 0.578721 0H15.4213C15.7409 0 16 0.259102 16 0.578721V4.46962C16 4.78924 15.7409 5.04834 15.4213 5.04834H0.578721C0.259102 5.04834 0 4.78924 0 4.46962V0.578721Z" fill="#5178FA"/>
<path d="M1.5 6.09581C1.5 5.77619 1.7591 5.51709 2.07872 5.51709H13.9101C14.2297 5.51709 14.4888 5.77619 14.4888 6.09581V9.93421C14.4888 10.2538 14.2297 10.5129 13.9101 10.5129H2.07872C1.7591 10.5129 1.5 10.2538 1.5 9.93421V6.09581Z" fill="black"/>
<path d="M3 11.5604C3 11.2408 3.2591 10.9817 3.57872 10.9817H12.4505C12.7701 10.9817 13.0292 11.2408 13.0292 11.5604V15.4513C13.0292 15.7709 12.7701 16.03 12.4505 16.03H3.57872C3.2591 16.03 3 15.7709 3 15.4513V11.5604Z" fill="#009600"/>
</g>
<defs>
<clipPath id="clip0_3_867">
<rect width="16" height="16" fill="white"/>
</clipPath>
</defs>
</svg>
